<svg width="284.04999999999995" height="70.11177266489018" viewBox="0 0 369.9130434782609 91.30526037713595" class="css-1j8o68f"><defs id="SvgjsDefs2735"></defs><g id="SvgjsG2736" featurekey="Df7oLJ-0" transform="matrix(1.1413157547141994,0,0,1.1413157547141994,-19.022309474840405,-11.413157547141994)" fill="#ffffff"><path xmlns="http://www.w3.org/2000/svg" d="M16.667,43.33C16.667,69.104,37.559,90,63.333,90v-6.667c-22.093,0-40-17.91-40-40.003H16.667z"></path><path xmlns="http://www.w3.org/2000/svg" d="M63.333,16.667c-14.729,0-26.666,11.94-26.666,26.664C36.667,58.06,48.604,70,63.333,70v6.667  C44.922,76.667,30,61.741,30,43.33C30,24.922,44.922,10,63.333,10V16.667z"></path><path xmlns="http://www.w3.org/2000/svg" d="M63.333,43.333v20c-11.048,0-20-8.955-20-20.003c0-11.045,8.952-19.997,20-19.997c11.049,0,20,8.952,20,19.997  L63.333,43.333z"></path></g><g id="SvgjsG2737" featurekey="Ua4uQk-0" transform="matrix(2.9133485538299615,0,0,2.9133485538299615,93.96065517880332,2.2191130523197025)" fill="#f7f8f9"><path d="M5.86 5.76 c2.52 0 4.06 1.56 4.82 2.88 l-2.36 1.42 c-0.78 -1 -1.46 -1.46 -2.46 -1.46 c-0.86 0 -1.5 0.5 -1.5 1.2 c0 0.72 0.4 1.08 1.4 1.42 l0.94 0.34 c3.26 1.14 4.38 2.58 4.38 4.44 c0 2.92 -2.76 4.3 -5.16 4.3 c-2.56 0 -4.52 -1.52 -5.22 -3.46 l2.46 -1.32 c0.5 0.9 1.24 1.88 2.76 1.88 c1.04 0 1.82 -0.42 1.82 -1.36 c0 -0.86 -0.48 -1.26 -1.98 -1.82 l-0.8 -0.28 c-2.06 -0.74 -3.8 -1.72 -3.8 -4.28 c0 -2.28 2.16 -3.9 4.7 -3.9 z M20 20 l-3.38 -4.04 l-0.66 0.7 l0 3.34 l-3.16 0 l0 -3.78 l0 -10.36 l3.16 0 l0 6.94 l2.94 -3.2 l3.78 0 l-4.12 4.34 l5.04 6.06 l-3.6 0 z M27.78 5.859999999999999 l0 2.66 l-3.16 0 l0 -2.66 l3.16 0 z M27.78 9.6 l0 10.4 l-3.16 0 l0 -10.4 l3.16 0 z M32.980000000000004 5.859999999999999 l0 14.14 l-3.16 0 l0 -14.14 l3.16 0 z M38.18 5.859999999999999 l0 14.14 l-3.16 0 l0 -14.14 l3.16 0 z M45.06 5.76 c2.52 0 4.06 1.56 4.82 2.88 l-2.36 1.42 c-0.78 -1 -1.46 -1.46 -2.46 -1.46 c-0.86 0 -1.5 0.5 -1.5 1.2 c0 0.72 0.4 1.08 1.4 1.42 l0.94 0.34 c3.26 1.14 4.38 2.58 4.38 4.44 c0 2.92 -2.76 4.3 -5.16 4.3 c-2.56 0 -4.52 -1.52 -5.22 -3.46 l2.46 -1.32 c0.5 0.9 1.24 1.88 2.76 1.88 c1.04 0 1.82 -0.42 1.82 -1.36 c0 -0.86 -0.48 -1.26 -1.98 -1.82 l-0.8 -0.28 c-2.06 -0.74 -3.8 -1.72 -3.8 -4.28 c0 -2.28 2.16 -3.9 4.7 -3.9 z M66.42 9.56 l3.14 0 l-3.72 10.44 l-3.04 0 l-2.28 -6.5 l-2.28 6.5 l-3.04 0 l-3.72 -10.44 l3.14 0 l2.14 6.68 l2.38 -6.68 l2.76 0 l2.38 6.68 z M78.56 9.6 l3.16 0 l0 10.4 l-3.16 0 l0 -1.04 c-0.14 0.36 -1.08 1.24 -2.68 1.24 c-2.38 0 -5.12 -1.7 -5.12 -5.42 c0 -3.58 2.74 -5.36 5.12 -5.36 c1.6 0 2.54 0.92 2.68 1.14 l0 -0.96 z M76.34 17.42 c1.3 0 2.36 -0.9 2.36 -2.64 c0 -1.68 -1.06 -2.58 -2.36 -2.58 c-1.36 0 -2.52 0.92 -2.52 2.58 c0 1.72 1.16 2.64 2.52 2.64 z M89.60000000000001 9.42 c2.38 0 5.12 1.78 5.12 5.36 c0 3.72 -2.74 5.42 -5.12 5.42 c-1.6 0 -2.54 -0.88 -2.68 -1.24 l0 4.84 l-3.16 0 l0 -6.02 l0 -8.18 l3.16 0 l0 0.96 c0.14 -0.22 1.08 -1.14 2.68 -1.14 z M89.14000000000001 17.42 c1.36 0 2.52 -0.92 2.52 -2.64 c0 -1.66 -1.16 -2.58 -2.52 -2.58 c-1.3 0 -2.36 0.9 -2.36 2.58 c0 1.74 1.06 2.64 2.36 2.64 z"></path></g></svg>